# xmcd
#
# Track frame offsets: 
#        150
#        43818
#        72673
#        101904
#        130011
#        158190
#        203435
#        237008
#        267593
#        295603
#        329446
#
# Disc length: 4784 seconds
#
# Revision: 0
# Processed by: cddbd v1.5.2PL0 Copyright (c) Steve Scherf et al.
# Submitted via: ExactAudioCopy v1.3
#
DISCID=a312ae0b
DTITLE=Various Artist - Akella Presents - vol.110 - Long Time Blues  
DTITLE=CD2
DYEAR=2017
DGENRE=Blues
TTITLE0=TW Henderson and the Blues of Cain - Don't Deny Me Baby
TTITLE1=Lazy 50 - Poor Boy Blues
TTITLE2=Michael Terry - Blame It On My Day Job
TTITLE3=John Mayall and The Bluesbreakers - Blues for the Lost Days
TTITLE4=The Peacemakers - Rebel
TTITLE5=Blues 'n' Trouble - Living With My Blues
TTITLE6=Little Al Thomas and The Deep Down Fools - Anger Heats My House
TTITLE7=Marc Ford - Pay For My Mistakes
TTITLE8=Chris Bell and 100% Blues - Don't Like To Brag
TTITLE9=Ron Evans Group - Rock Me
TTITLE10=Julian Fauth - Blues For Mel Brown
EXTD=
EXTT0=
EXTT1=
EXTT2=
EXTT3=
EXTT4=
EXTT5=
EXTT6=
EXTT7=
EXTT8=
EXTT9=
EXTT10=
PLAYORDER=
